<svg version="1.1" xmlns="http://www.w3.org/2000/svg" viewBox="0 0 120 120">
    <rect
        width="120"
        height="120"
        fill="#122115"
    />
    <!-- Horizontal Shells -->
    <path
        d="
            M 0 10
            h 30
            a 15 10 0 0 1 30 0
            v 10
            h -30
            a 15 10 0 0 1 -30 0
            z
            
            m -30 30
            h 30
            a 15 10 0 0 1 30 0
            v 10
            h -30
            a 15 10 0 0 1 -30 0
            z
            
            m 120 0
            h 30
            a 15 10 0 0 1 30 0
            v 10
            h -30
            a 15 10 0 0 1 -30 0
            z
            
            m -30 30
            h 30
            a 15 10 0 0 1 30 0
            v 10
            h -30
            a 15 10 0 0 1 -30 0
            z
            
            m -30 30
            h 30
            a 15 10 0 0 1 30 0
            v 10
            h -30
            a 15 10 0 0 1 -30 0
            z
        "
        stroke="black" 
        stroke-width="0"
        stroke-linecap="round"
        stroke-linejoin="round"
        fill="#223325"
    />
    
    <!-- Vertical Shells -->
    <path
        d="
            M 100 -30
            v 30
            a 10 15 0 0 0 0 30
            h 10
            v -30
            a 10 15 0 0 0 0 -30
            z
            
            m -30 30
            v 30
            a 10 15 0 0 0 0 30
            h 10
            v -30
            a 10 15 0 0 0 0 -30
            z
            
            m -30 30
            v 30
            a 10 15 0 0 0 0 30
            h 10
            v -30
            a 10 15 0 0 0 0 -30
            z
            
            m -30 30
            v 30
            a 10 15 0 0 0 0 30
            h 10
            v -30
            a 10 15 0 0 0 0 -30
            z
            
            m 90 30
            v 30
            a 10 15 0 0 0 0 30
            h 10
            v -30
            a 10 15 0 0 0 0 -30
            z
        "
        stroke="black" 
        stroke-width="0"
        stroke-linecap="round"
        stroke-linejoin="round"
        fill="#223325"
    />
    
    <!-- Horizontal Head + Appendages Top -->
    <path
        d="
            M 0 10
            h 10
            v -10
            h 10
            v 10
            h 10
            v -5
            a 5 5 0 0 0 -10 0
            a 5 5 0 0 1 -10 0
            a 5 5 0 0 0 -10 0
            z
            
            m 30 90
            h 10
            v -10
            h 10
            v 10
            h 10
            v -5
            a 5 5 0 0 0 -10 0
            a 5 5 0 0 1 -10 0
            a 5 5 0 0 0 -10 0
            z
            
            m 30 -30
            h 10
            v -10
            h 10
            v 10
            h 10
            v -5
            a 5 5 0 0 0 -10 0
            a 5 5 0 0 1 -10 0
            a 5 5 0 0 0 -10 0
            z
            
            m 30 -30
            h 10
            v -10
            h 10
            v 10
            h 10
            v -5
            a 5 5 0 0 0 -10 0
            a 5 5 0 0 1 -10 0
            a 5 5 0 0 0 -10 0
            z
        "
        stroke="black" 
        stroke-width="0"
        stroke-linecap="round"
        stroke-linejoin="round"
        fill="#1a2b1d"
    />
    
    <!-- Horizontal Head + Appendages Bottom -->
    <path
        d="
            M 30 20
            h 10
            v 10
            h 10
            v -10
            h 10
            v 5
            a 5 5 0 0 1 -10 0
            a 5 5 0 0 0 -10 0
            a 5 5 0 0 1 -10 0
            z
            
            m -30 30
            h 10
            v 10
            h 10
            v -10
            h 10
            v 5
            a 5 5 0 0 1 -10 0
            a 5 5 0 0 0 -10 0
            a 5 5 0 0 1 -10 0
            z
            
            m 90 30
            h 10
            v 10
            h 10
            v -10
            h 10
            v 5
            a 5 5 0 0 1 -10 0
            a 5 5 0 0 0 -10 0
            a 5 5 0 0 1 -10 0
            z
            
            m -30 30
            h 10
            v 10
            h 10
            v -10
            h 10
            v 5
            a 5 5 0 0 1 -10 0
            a 5 5 0 0 0 -10 0
            a 5 5 0 0 1 -10 0
            z
        "
        stroke="black" 
        stroke-width="0"
        stroke-linecap="round"
        stroke-linejoin="round"
        fill="#1a2b1d"
    />
    
    <!-- Vertical Head + Appendages Left -->
    <path
        d="
            M 70 0
            v 10
            h -10
            v 10
            h 10
            v 10
            h -5
            a 5 5 0 0 1 0 -10
            a 5 5 0 0 0 0 -10
            a 5 5 0 0 1 0 -10
            z
            
            m -30 30
            v 10
            h -10
            v 10
            h 10
            v 10
            h -5
            a 5 5 0 0 1 0 -10
            a 5 5 0 0 0 0 -10
            a 5 5 0 0 1 0 -10
            z
            
            m -30 30
            v 10
            h -10
            v 10
            h 10
            v 10
            h -5
            a 5 5 0 0 1 0 -10
            a 5 5 0 0 0 0 -10
            a 5 5 0 0 1 0 -10
            z
            
            m 90 30
            v 10
            h -10
            v 10
            h 10
            v 10
            h -5
            a 5 5 0 0 1 0 -10
            a 5 5 0 0 0 0 -10
            a 5 5 0 0 1 0 -10
            z
        "
        stroke="black" 
        stroke-width="0"
        stroke-linecap="round"
        stroke-linejoin="round"
        fill="#1a2b1d"
    />
    
    <!-- Vertical Head + Appendages Right -->
    <path
        d="
            M 110 0
            v 10
            h 10
            v 10
            h -10
            v 10
            h 5
            a 5 5 0 0 0 0 -10
            a 5 5 0 0 1 0 -10
            a 5 5 0 0 0 0 -10
            z
            
            m -30 30
            v 10
            h 10
            v 10
            h -10
            v 10
            h 5
            a 5 5 0 0 0 0 -10
            a 5 5 0 0 1 0 -10
            a 5 5 0 0 0 0 -10
            z
            
            m -30 30
            v 10
            h 10
            v 10
            h -10
            v 10
            h 5
            a 5 5 0 0 0 0 -10
            a 5 5 0 0 1 0 -10
            a 5 5 0 0 0 0 -10
            z
            
            m -30 30
            v 10
            h 10
            v 10
            h -10
            v 10
            h 5
            a 5 5 0 0 0 0 -10
            a 5 5 0 0 1 0 -10
            a 5 5 0 0 0 0 -10
            z
        "
        stroke="black" 
        stroke-width="0"
        stroke-linecap="round"
        stroke-linejoin="round"
        fill="#1a2b1d"
    />
</svg>
